<svg xmlns="http://www.w3.org/2000/svg" width="1024.000000pt" height="1024.000000pt" viewBox="0 0 427.06 258.2"><g id="Layer_2" data-name="Layer 2"><g id="Layer_1-2" data-name="Layer 1"><path d="M100.77,67.34h80.54v6.42H108.15v48.29H177v6.41h-68.8v53h74v6.42H100.77Zm87.76,0h8.56l37.92,53,38.77-53L326.5,0,239.88,125.93l44.64,62h-8.9L235,131.5l-40.77,56.4h-8.73l45-62L188.53,67.34Zm99.18,6.42V67.34h91.78v6.42H337.21V187.89h-7.39V73.76ZM0,67.34H9.23L136.5,258.2,83.9,187.9,7.72,76.46,7.38,187.9H0Zm378.75,112.2a2.69,2.69,0,1,1,2.64-2.68,2.61,2.61,0,0,1-2.64,2.68Zm7.26-7.06H390a3.61,3.61,0,0,0,3.91,3.58c2.57,0,4-1.54,4-4.45V153.23h4v18.4c0,5.23-3,8.24-8,8.24-4.69,0-7.9-2.92-7.9-7.39Zm21.17-.23h4c.34,2.46,2.74,4,6.21,4,3.23,0,5.6-1.68,5.6-4,0-2-1.5-3.17-4.94-4l-3.34-.81c-4.68-1.1-6.82-3.37-6.82-7.19,0-4.64,3.77-7.72,9.43-7.72,5.26,0,9.1,3.08,9.34,7.46h-3.92c-.38-2.39-2.46-3.89-5.48-3.89-3.18,0-5.29,1.53-5.29,3.87,0,1.86,1.36,2.92,4.74,3.72l2.85.7c5.32,1.24,7.51,3.41,7.51,7.31,0,5-3.85,8.1-10,8.1-5.74,0-9.61-3-9.89-7.63Z"/></g></g></svg>