<svg xmlns="http://www.w3.org/2000/svg" width="1024.000000pt" height="1024.000000pt" viewBox="0 0 56.144 56.144">
  <g id="g12" transform="translate(-30.585 -29.998)">
    <circle id="circle14" cx="28.072" cy="28.072" r="28.072" transform="translate(30.585 29.998)"/>
    <path id="path16" d="M70.93,40.385a10.071,10.071,0,0,0-7.193,3.846,24.242,24.242,0,0,0-4.4,8.1c-1.759-1.442-3.116-3.308-5.938-4.122a7.257,7.257,0,0,0-6.58,1.2,5.9,5.9,0,0,0-2.013,2.932c-.848,2.754.889,5.205,1.679,6.086l1.725,1.846A2.624,2.624,0,0,1,49,62.937,3.185,3.185,0,0,1,44.951,64.8c-.814-.252-1.984-.857-1.721-1.709a7.469,7.469,0,0,1,.493-.912,4.228,4.228,0,0,0,.218-.568,2.282,2.282,0,0,0-1.286-2.861,1.914,1.914,0,0,0-2.628,1.329c-.49,1.591.271,4.472,4.344,5.729,4.772,1.467,8.809-1.133,9.381-4.521.361-2.122-.6-3.7-2.354-5.729l-1.43-1.581a2.609,2.609,0,0,1-.268-3.475c.757-.957,1.834-1.365,3.6-.886,2.577.7,3.726,2.487,5.642,3.93-.791,2.6-1.309,5.2-1.776,7.538l-.287,1.74c-1.371,7.186-2.416,11.131-5.134,13.4a4.392,4.392,0,0,1-2.51,1.014.723.723,0,0,1-.828-.592c-.014-.434.353-.633.6-.828a1.505,1.505,0,0,0,.875-1.578,2.381,2.381,0,0,0-2.559-2.273,2.965,2.965,0,0,0-2.752,3.01c.066,1.984,1.916,3.473,4.706,3.377,1.492-.049,4.822-.656,8.1-4.557,3.819-4.473,4.888-9.6,5.692-13.352l.9-4.953c.5.059,1.031.1,1.611.113,4.757.1,7.136-2.363,7.173-4.155a1.943,1.943,0,0,0-1.742-2.128,1.986,1.986,0,0,0-1.884,1.529c-.217,1,1.514,1.9.161,2.779a7.538,7.538,0,0,1-5.11.705l.442-2.439c.9-4.624,2.011-10.312,6.224-10.449.307-.016,1.431.014,1.457.756.007.248-.054.312-.344.88a2.011,2.011,0,0,0-.395,1.253,1.976,1.976,0,0,0,2.238,1.91,2.42,2.42,0,0,0,2.209-2.618c-.072-2.045-2.226-3.335-5.075-3.243Z" fill="#fff"/>
  </g>
</svg>
