<svg version="1.1" id="Layer_1" xmlns="http://www.w3.org/2000/svg" xmlns:xlink="http://www.w3.org/1999/xlink" x="0px" y="0px" viewBox="0 0 464 197.5" style="enable-background:new 0 0 464 197.5;" xml:space="preserve">
<g>
	<path class="st0" d="M98.6,64V49.4c0-5.3-3.2-10-8.1-12.1L0,0v8.1l80.7,33.3c2.8,1.1,2.8,5.1,0,6.2L0,80.9v32.5l48.6-20.1l32,13.2
		c2.8,1.1,2.8,5.1,0,6.2L0,146v51.5l90.5-37.3c4.9-2,8.1-6.8,8.1-12.1v-33.5c0-5.3-3.2-10-8.1-12.1L58.4,89.3l32.1-13.2
		C95.4,74.1,98.6,69.3,98.6,64z"></path>
	<g>
		<path class="st0" d="M170.7,49.4l7.2,28.1l8.1-28.1h7.7l7.6,28.1l7.5-28.1h5.7l-9.7,33.9h-7.2l-8-29.2l-8.3,29.2H174l-9.4-33.9
			H170.7z"></path>
		<path class="st0" d="M223.2,68c0.2,2.8,0.5,4.2,1.4,6c1.7,3.2,5.5,5.3,9.3,5.3c4.6,0,7.6-2.2,8.9-6.5h6.3
			c-1.6,7.3-7.1,11.4-15.3,11.4c-10.2,0-16.7-7-16.7-18c0-10.7,6.5-17.9,16.2-17.9c10.3,0,15.9,7,15.9,19.6H223.2z M241.4,57.6
			c-1.6-2.7-4.8-4.3-8.1-4.3c-5.7,0-9.3,3.6-10,10.1H243C242.7,60.4,242.3,59,241.4,57.6z"></path>
		<path class="st0" d="M254.9,36.5h5.8v18c2.4-4,5.7-5.9,10.5-5.9c8.4,0,14.4,7.3,14.4,17.8c0,10.5-5.7,17.6-14.3,17.6
			c-4.7,0-7.8-1.9-10.8-6.3v5.6h-5.6V36.5z M260.8,66.2c0,7.4,4.2,12.9,9.7,12.9c5.3,0,8.8-5,8.8-12.7c0-8.1-3.5-13.1-9-13.1
			S260.8,58.6,260.8,66.2z"></path>
		<path class="st0" d="M296.1,69c-0.1,6,3.7,9.9,9.7,9.9c5.4,0,9.3-3.4,9.3-8.1c0-4.8-3.7-7.7-9.7-7.7c-0.6,0-1.1,0-2,0.1V58
		c0.7,0,1.1,0,1.5,0c6.2,0,9.8-2.7,9.8-7.5c0-4.5-3.5-7.4-8.8-7.4c-5.7,0-9,3.4-9.2,9.4h-6.2c0.4-9.3,6.1-14.7,15.5-14.7
		c8.7,0,14.8,5,14.8,12.2c0,4.8-3.4,9.2-8,10.4c5.6,1.4,8.6,5.2,8.6,10.8c0,7.6-6.5,13-15.7,13c-9.6,0-16.1-6.2-16-15.2H296.1z"></path>
	</g>
</g>
</svg>