<svg xmlns="http://www.w3.org/2000/svg" width="165.379" height="69.053" viewBox="0 0 165.379 69.053">
  <g id="the_top_layer" transform="translate(-155.737 -401.56)">
    <path d="M777.871,793.248l-3.223,41a298.567,298.567,0,0,0,33.223,6.605c5.505.717,12.173-.507,18.722,0,3.865.3,13.509,0,13.509,0s2,3.027,5.207,2.727c.047,0,1.811.014,2.173,0,.26-.018,1.32-1.233,2.042-1.24.842-.01,4.609,1.228,6.446,1.24,1.063.006,3.671-1.258,5-1.24,1.693.023,5.913,0,5.913,0a141.417,141.417,0,0,0,18.347,0c.359-.03,4.352-1.434,4.959-1.488,21.679-1.911,41.652-4.859,41.652-4.859l-9.669-42.744s-21.811,15.537-45.619,19.339c-11.595,1.851-21.268,1.4-28.067,1.24a98.458,98.458,0,0,1-21.888-2.727c-20.007-4.4-32.16-4.375-32.16-4.375Z" transform="translate(-614.528 -379.972)" fill="#414666"/>
    <path d="M157.652,455.1A215.93,215.93,0,0,0,185.6,460.4c10.384,1.37,22.892,2.193,36.841,2.752,12.951.52,42.1.317,56.108-.847,9-.748,20-2.686,27.525-4.023a57.712,57.712,0,0,0,12.28-3.176" fill="none" stroke="#000" stroke-width="14"/>
    <path d="M792.558,803.034s22.7,16.31,56.054,20.283a116.123,116.123,0,0,0,39.709-2.075,123.72,123.72,0,0,0,43.548-19.865" transform="translate(-625.644 -390.762)" fill="none" stroke="#000" stroke-linecap="round" stroke-width="13"/>
  </g>
</svg>
